# xmcd CD database file
#
# Track frame offsets:
#	150
#	47467
#	55672
#	68082
#	81212
#	99755
#	113767
#	127470
#	131427
#	153915
#	199037
#	212415
#	242657
#
# Disc length: 3647 seconds
#
# Revision: 0
# Processed by: cddbd v1.5.1PL0 Copyright (c) Steve Scherf et al.
# Submitted via: CDex 1.51
#
DISCID=a60e3d0d
DTITLE=Dynamic Evolving Impulse - The First Step to Reestablish Motion
DYEAR=1996
DGENRE=New Age
TTITLE0=Prelude
TTITLE1=Evasion
TTITLE2=Introspection
TTITLE3=Appeal
TTITLE4=Stars in the Sky
TTITLE5=Dangers of the Sky
TTITLE6=Memories
TTITLE7=Expansion
TTITLE8=Hope
TTITLE9=Look and Find!
TTITLE10=Evocation
TTITLE11=Intimacy
TTITLE12=Standing!
EXTD=YEAR: 1996
EXTT0=
EXTT1=
EXTT2=
EXTT3=
EXTT4=
EXTT5=
EXTT6=
EXTT7=
EXTT8=
EXTT9=
EXTT10=
EXTT11=
EXTT12=
PLAYORDER=
